<svg height="512" viewBox="0 0 64 64" width="512" xmlns="http://www.w3.org/2000/svg"><g id="File_Transfer-Smartphone-Files-Transfer-Technology" data-name="File Transfer-Smartphone-Files-Transfer-Technology"><path d="m51 8v48a5 5 0 0 1 -5 5h-28a5 5 0 0 1 -5-5v-48a5 5 0 0 1 5-5h28a5 5 0 0 1 5 5z" fill="#5aaae7"/><path d="m51 19.51v36.49a5 5 0 0 1 -5 5h-28a5 5 0 0 1 -3.01-1.01 82.853 82.853 0 0 0 21.01-17.44 95.857 95.857 0 0 0 9.91-13.55 102.633 102.633 0 0 0 5.09-9.49z" fill="#479fe3"/><path d="m34 53h-4a2 2 0 0 0 0 4h4a2 2 0 0 0 0-4z" fill="#e6e7e8"/><path d="m51 32v19h-13a2.006 2.006 0 0 1 -2-2v-18a2.006 2.006 0 0 1 2-2h10z" fill="#3d9ae2"/><path d="m52 33a2 2 0 0 1 -2-2v-4h-10a2.006 2.006 0 0 0 -2 2v18a2.006 2.006 0 0 0 2 2h14a2.006 2.006 0 0 0 2-2v-14z" fill="#00ccb3"/><path d="m51 28-1-1v4a2 2 0 0 0 2 2h4z" fill="#00b39d"/><path d="m28 21v14a2.006 2.006 0 0 1 -2 2h-13v-22h9z" fill="#3d9ae2"/><path d="m26 19h-4a2.006 2.006 0 0 1 -2-2v-4z" fill="#ebbf00"/><path d="m22 19a2.006 2.006 0 0 1 -2-2v-4h-10a2.006 2.006 0 0 0 -2 2v18a2.006 2.006 0 0 0 2 2h14a2.006 2.006 0 0 0 2-2v-14z" fill="#ffd422"/><path d="m29.707 40.293-1.414 1.414 2.293 2.293h-11.586v-5h-2v6a1 1 0 0 0 1 1h12.586l-2.293 2.293 1.414 1.414 4-4a1 1 0 0 0 0-1.414z" fill="#3d9ae2"/><path d="m48 18h-12.586l2.293-2.293-1.414-1.414-4 4a1 1 0 0 0 0 1.414l4 4 1.414-1.414-2.293-2.293h11.586v5h2v-6a1 1 0 0 0 -1-1z" fill="#3d9ae2"/><path d="m27 33v-14a1 1 0 0 0 -.293-.707l-6-6a1 1 0 0 0 -.707-.293h-10a3 3 0 0 0 -3 3v18a3 3 0 0 0 3 3h14a3 3 0 0 0 3-3zm-6-17.586 2.586 2.586h-1.586a1 1 0 0 1 -1-1zm-12 17.586v-18a1 1 0 0 1 1-1h9v3a3 3 0 0 0 3 3h3v13a1 1 0 0 1 -1 1h-14a1 1 0 0 1 -1-1z"/><path d="m11 22h12v2h-12z"/><path d="m11 26h12v2h-12z"/><path d="m11 30h12v2h-12z"/><path d="m11 18h6v2h-6z"/><path d="m56.707 32.293-6-6a1 1 0 0 0 -.707-.293h-10a3 3 0 0 0 -3 3v18a3 3 0 0 0 3 3h14a3 3 0 0 0 3-3v-14a1 1 0 0 0 -.293-.707zm-5.707-2.879 2.586 2.586h-1.586a1 1 0 0 1 -1-1zm3 18.586h-14a1 1 0 0 1 -1-1v-18a1 1 0 0 1 1-1h9v3a3 3 0 0 0 3 3h3v13a1 1 0 0 1 -1 1z"/><path d="m41 36h12v2h-12z"/><path d="m41 40h12v2h-12z"/><path d="m41 44h12v2h-12z"/><path d="m41 32h6v2h-6z"/><path d="m50 56a4 4 0 0 1 -4 4h-28a4 4 0 0 1 -4-4v-18h-2v18a6.006 6.006 0 0 0 6 6h28a6.006 6.006 0 0 0 6-6v-4h-2z"/><path d="m14 8a4 4 0 0 1 4-4h28a4 4 0 0 1 4 4v16h2v-16a6.006 6.006 0 0 0 -6-6h-28a6.006 6.006 0 0 0 -6 6v2h2z"/><path d="m30 58h4a3 3 0 0 0 0-6h-4a3 3 0 0 0 0 6zm0-4h4a1 1 0 0 1 0 2h-4a1 1 0 0 1 0-2z"/><path d="m25 6h2v2h-2z"/><path d="m29 6h6v2h-6z"/><path d="m16 38v6a1 1 0 0 0 1 1h12.586l-2.293 2.293 1.414 1.414 4-4a1 1 0 0 0 0-1.414l-4-4-1.414 1.414 2.293 2.293h-11.586v-5z"/><path d="m48 24v-6a1 1 0 0 0 -1-1h-12.586l2.293-2.293-1.414-1.414-4 4a1 1 0 0 0 0 1.414l4 4 1.414-1.414-2.293-2.293h11.586v5z"/></g></svg>